# xmcd
#
# Track frame offsets:
#	150
#	17957
#	38897
#	59405
#	98191
#	114227
#	157277
#	186242
#	209104
#	231604
#
# Disc length: 3546 seconds
#
# Revision: 1
# Processed by: cddbd v1.5.2PL0 Copyright (c) Steve Scherf et al.
# Submitted via: audiograbber 1.83.01
#
DISCID=970dd80a
DTITLE=The Jeff Healey Band - Live Ohne Filter
DYEAR=2000
DGENRE=Bluesrock
TTITLE0=My Little Girl
TTITLE1=Wich One
TTITLE2=Love Is The Answer
TTITLE3=How Blue Can You Get
TTITLE4=Confidence Man
TTITLE5=Put The Shoe On The Other Foot
TTITLE6=Feel Better
TTITLE7=Angel Eyes
TTITLE8=Roadhouse Blues
TTITLE9=See The Light
EXTD=
EXTT0=
EXTT1=
EXTT2=
EXTT3=
EXTT4=
EXTT5=
EXTT6=
EXTT7=
EXTT8=
EXTT9=
PLAYORDER=
